<?xml version="1.0" standalone="no"?>
<!DOCTYPE svg PUBLIC "-//W3C//DTD SVG 20010904//EN"
 "http://www.w3.org/TR/2001/REC-SVG-20010904/DTD/svg10.dtd">
<svg version="1.0" xmlns="http://www.w3.org/2000/svg"
 width="1024.000000pt" height="1024.000000pt" viewBox="0 0 1024.000000 1024.000000"
 preserveAspectRatio="xMidYMid meet">

<g transform="translate(0.000000,1024.000000) scale(0.100000,-0.100000)"
fill="#000000" stroke="none">
<path d="M0 5120 l0 -5120 5120 0 5120 0 0 5120 0 5120 -5120 0 -5120 0 0
-5120z m4146 2457 c9 -2 -212 -508 -228 -522 -1 -1 -166 -6 -365 -10 l-363 -7
0 24 c0 12 17 43 36 68 20 25 102 131 181 237 112 149 152 194 179 205 26 11
91 13 291 10 142 -1 263 -4 269 -5z m1248 -15 c2 -9 16 -87 31 -172 15 -85 33
-189 40 -230 7 -41 11 -78 9 -82 -7 -10 -764 -10 -764 0 0 4 16 118 37 254
l37 247 30 3 c17 2 153 2 303 0 247 -2 272 -4 277 -20z m1210 8 c15 -5 55 -49
93 -102 37 -51 119 -160 180 -242 62 -82 113 -155 113 -163 0 -12 -49 -14
-307 -12 -170 2 -333 5 -364 7 l-56 4 -26 56 c-14 32 -64 143 -112 247 -47
105 -89 196 -92 203 -4 9 54 12 270 12 155 0 287 -4 301 -10z m1086 -237 l0
-103 -100 0 -100 0 0 99 c0 64 4 101 11 103 6 2 51 4 100 4 l89 1 0 -104z
m-341 -195 c-1 -49 -3 -65 -8 -48 -5 14 -7 32 -5 42 1 9 -7 25 -19 35 -15 12
-18 13 -9 2 6 -9 9 -19 5 -23 -4 -4 -13 4 -20 16 -7 13 -12 17 -13 9 0 -9 -4
-10 -12 -4 -17 13 -49 8 -59 -9 -6 -8 -9 -2 -9 20 l0 32 75 0 75 0 -1 -72z
m-84 -1 c1 -14 -3 -23 -8 -20 -5 3 -6 15 -3 27 5 19 4 20 -8 3 -11 -14 -15
-15 -19 -3 -7 18 0 25 21 22 11 -2 17 -12 17 -29z m49 2 c9 7 12 3 11 -18 0
-15 -5 -28 -12 -28 -6 0 -8 7 -5 16 5 14 4 14 -13 1 -10 -8 -16 -10 -12 -3 4
6 3 14 -2 18 -6 3 -7 13 -4 21 5 15 7 14 15 0 7 -12 13 -14 22 -7z m756 -254
l0 -165 -167 3 -168 2 -3 163 -2 162 170 0 170 0 0 -165z m-839 -98 c113 -55
186 -149 208 -270 9 -50 7 -69 -14 -150 -39 -148 -36 -139 -51 -126 -12 10
-13 8 -9 -7 4 -12 0 -9 -9 6 -10 16 -15 19 -16 10 0 -13 -2 -13 -9 0 -6 8 -7
18 -4 24 3 5 1 6 -6 2 -6 -4 -8 -13 -5 -19 5 -8 4 -9 -4 -2 -7 7 -4 40 10 110
25 118 20 174 -20 234 -33 48 -92 94 -146 111 -57 18 -147 7 -201 -24 -58 -35
-90 -78 -119 -163 -13 -39 -29 -80 -35 -91 -12 -22 -43 -23 -49 -1 -3 11 -1
11 7 -1 12 -17 14 -10 5 14 -6 15 -8 15 -20 -1 -9 -13 -16 -15 -24 -7 -12 12
26 148 60 214 22 43 84 106 125 128 97 51 234 55 326 9z m-4726 -83 c127 -25
275 -54 330 -64 118 -21 161 -38 211 -82 55 -48 76 -90 127 -243 97 -294 139
-447 126 -459 -9 -8 -10 -8 -5 1 10 18 -4 68 -15 52 -4 -8 -3 -20 4 -29 10
-13 10 -13 -5 -1 -14 10 -15 17 -7 33 8 15 8 27 -2 47 -7 14 -13 30 -13 35 -1
5 -8 10 -17 11 -12 2 -15 -3 -12 -16 3 -10 10 -17 15 -16 6 1 13 -5 15 -13 4
-13 3 -13 -7 0 -10 12 -11 11 -6 -9 13 -61 -17 10 -73 174 -90 258 -100 282
-142 336 -65 82 -94 93 -405 155 -153 30 -317 64 -363 76 -78 19 -86 19 -117
4 -19 -8 -47 -34 -64 -57 -16 -23 -30 -37 -30 -30 0 6 21 34 46 61 45 48 102
78 154 79 14 1 129 -20 255 -45z m4020 -235 c22 -6 70 -19 107 -30 l66 -19
-19 -62 c-10 -34 -28 -75 -39 -90 -27 -36 -25 -64 5 -93 47 -48 120 -17 113
48 -3 34 32 167 44 167 4 0 101 -27 215 -61 115 -34 222 -65 240 -70 l32 -10
-16 -51 c-22 -76 -29 -92 -47 -107 -24 -20 -21 -77 6 -95 50 -36 127 -2 114
50 -4 13 3 58 15 99 17 58 26 74 38 71 281 -80 314 -101 310 -193 l-3 -53 88
-51 c121 -69 159 -94 175 -113 12 -14 12 -41 2 -168 -7 -83 -18 -165 -25 -182
-18 -40 -49 -68 -236 -211 -85 -65 -174 -135 -197 -155 -62 -54 -124 -84 -155
-77 -18 5 -70 61 -167 182 l-141 175 54 98 c30 53 64 117 77 142 16 29 58 73
124 128 55 46 99 89 97 95 -2 7 -1 9 3 5 4 -4 35 14 69 40 34 26 78 56 99 67
20 11 37 23 37 28 0 4 4 6 9 2 5 -3 12 -1 15 4 3 4 -4 8 -17 7 -14 -1 -21 4
-19 13 2 11 0 12 -11 3 -8 -7 -16 -9 -19 -7 -3 3 -19 -8 -37 -24 -17 -16 -31
-26 -31 -23 0 4 -7 -2 -15 -12 -8 -11 -15 -17 -15 -13 0 4 -11 0 -25 -9 -14
-9 -22 -21 -18 -27 3 -6 1 -7 -5 -3 -12 7 -93 -53 -214 -159 -117 -103 -120
-105 -160 -108 -20 -2 -35 0 -32 5 3 4 -2 8 -10 8 -26 0 -30 1 -43 12 -7 6
-13 8 -13 4 0 -4 -13 0 -29 8 -16 9 -31 13 -34 9 -3 -3 -9 8 -13 23 -19 80
-70 148 -146 193 -20 12 -39 29 -42 39 -5 14 -3 13 9 -2 8 -11 15 -15 15 -9 0
6 -7 16 -15 23 -8 7 -15 9 -15 6 0 -4 -6 -4 -12 1 -7 4 -17 8 -23 10 -5 1 -32
9 -58 17 -34 11 -46 12 -42 3 4 -7 0 -4 -8 5 -8 10 -26 19 -41 20 -14 1 -26 7
-26 12 0 5 -3 7 -6 3 -4 -3 -19 0 -35 9 -16 8 -31 14 -34 14 -27 -1 -35 1 -31
8 3 5 -5 8 -17 7 -12 -1 -37 7 -55 17 -19 10 -31 14 -27 8 4 -6 -2 -7 -17 -1
-13 4 -24 16 -26 24 -2 9 16 83 39 164 38 129 48 153 80 186 33 34 41 37 90
37 30 0 72 -5 94 -11z m1465 -108 c0 -33 -4 -62 -9 -65 -4 -3 -7 6 -5 19 1 14
-1 23 -6 20 -4 -3 -11 2 -14 11 -6 17 -26 10 -26 -9 0 -9 2 -9 8 0 6 9 11 7
19 -7 10 -15 9 -21 -5 -32 -15 -12 -16 -11 -4 4 8 10 9 19 3 22 -5 4 -13 1
-17 -6 -5 -8 -10 -6 -14 8 -4 10 -3 24 2 31 6 7 5 14 -2 18 -6 4 -9 1 -8 -6 2
-7 -6 -13 -17 -13 -11 0 -19 6 -17 13 4 19 -18 2 -28 -23 -7 -16 -9 -11 -9 27
l-1 47 75 0 75 0 0 -59z m-96 -16 c5 0 11 -7 13 -15 4 -13 3 -13 -6 0 -10 14
-16 7 -12 -14 1 -5 -5 -4 -13 4 -19 15 -22 45 -3 33 6 -4 16 -8 21 -8z m-4384
-75 c3 -1 15 -1 28 0 48 4 432 -54 1387 -210 66 -11 413 -67 770 -125 736
-120 856 -141 905 -156 51 -17 85 -44 104 -83 30 -64 27 -80 -84 -496 -45
-169 -99 -354 -99 -344 -1 6 -8 11 -16 11 -13 0 -13 -2 0 -17 11 -12 12 -23 5
-45 -10 -30 -10 -30 -6 5 l5 35 -14 -30 c-8 -18 -10 -34 -4 -40 5 -5 9 -13 9
-18 0 -5 -9 2 -21 17 -12 15 -26 23 -32 19 -8 -4 -8 -2 1 9 10 13 9 18 -5 29
-15 12 -16 12 -10 -4 5 -12 3 -16 -5 -11 -8 5 -9 2 -5 -9 3 -9 3 -19 -2 -21
-4 -3 -8 0 -9 7 -13 80 -13 99 -4 93 6 -3 8 -21 6 -39 l-4 -32 14 25 c10 15
15 19 16 10 0 -13 2 -13 11 0 9 13 10 12 5 -2 -3 -10 -2 -17 2 -17 19 3 23 -2
13 -15 -8 -10 -9 -16 -1 -21 5 -3 10 0 11 7 0 7 2 21 4 31 2 9 -1 14 -6 11 -6
-3 -8 5 -5 18 3 19 -1 24 -17 26 -16 1 -18 -1 -8 -7 8 -5 9 -11 3 -15 -13 -8
-30 15 -27 36 4 21 -20 44 -30 28 -4 -6 -3 -9 2 -8 4 2 8 -1 8 -7 0 -5 -2 -9
-6 -8 -3 1 -6 -15 -7 -35 -2 -20 -5 -38 -7 -41 -3 -2 0 -10 6 -17 7 -8 7 -14
-1 -19 -6 -4 -9 -3 -8 2 1 4 -6 21 -17 37 -17 26 -20 27 -32 10 -7 -10 -13
-13 -13 -5 0 7 -5 9 -12 5 -10 -5 -10 -4 -1 6 7 8 9 19 4 29 -14 25 -17 58 -6
57 5 -1 9 -12 8 -26 l-2 -25 8 25 c9 24 9 24 10 3 1 -13 9 -31 20 -42 10 -10
21 -25 24 -32 3 -8 5 11 4 43 -2 43 -5 54 -14 46 -7 -6 -11 -14 -8 -18 3 -5 1
-11 -5 -15 -14 -9 -12 28 3 45 10 12 9 12 -4 2 -13 -10 -19 -9 -28 1 -6 8 -7
17 -3 21 4 4 0 6 -8 4 -9 -2 -14 3 -12 11 2 11 0 12 -11 3 -14 -12 -27 -7 -27
10 0 5 4 7 9 3 5 -3 13 -1 16 5 4 6 1 9 -7 8 -7 -2 -12 3 -10 11 3 12 0 12
-12 2 -13 -11 -17 -10 -22 3 -3 9 0 24 7 34 13 15 12 16 -3 3 -10 -7 -18 -20
-18 -28 0 -8 -5 -11 -11 -8 -7 5 -5 16 6 33 16 27 16 27 -3 6 -18 -21 -19 -21
-30 -3 -16 25 -15 34 1 20 11 -8 18 -6 33 12 l19 22 -22 -18 c-20 -17 -22 -17
-31 -1 -9 16 -10 15 -17 -5 -3 -11 -11 -19 -16 -15 -6 4 -6 11 1 19 8 9 8 15
0 20 -6 3 -7 12 -4 18 4 7 3 8 -2 4 -5 -5 -10 -13 -10 -18 -3 -22 -5 -23 -14
-9 -6 10 -4 20 6 31 19 21 0 37 -22 18 -13 -10 -14 -8 -10 16 3 15 2 24 -2 20
-7 -6 -8 -11 -11 -37 -2 -17 -16 1 -16 20 0 9 -6 16 -12 14 -12 -2 -17 11 -14
31 1 5 -3 6 -8 2 -6 -3 -8 -13 -5 -23 5 -14 3 -14 -10 2 -9 11 -16 27 -17 35
0 10 -4 7 -10 -7 -8 -22 -29 -22 -29 -1 0 6 4 8 8 5 4 -2 9 5 9 17 2 23 -3 18
-28 -27 -9 -14 -8 -17 2 -11 8 6 10 4 4 -5 -5 -8 -4 -11 3 -6 6 3 14 1 17 -5
4 -5 14 -8 22 -5 9 4 11 2 7 -6 -4 -7 -3 -8 4 -4 6 3 16 -3 22 -14 6 -11 16
-17 22 -14 7 5 8 2 2 -7 -5 -8 -9 -17 -9 -21 0 -3 -4 -10 -8 -15 -5 -4 -7 -3
-5 2 1 6 -7 23 -20 39 -22 29 -22 29 -45 10 -12 -10 -16 -12 -10 -4 19 21 -3
45 -26 28 -9 -7 -13 -8 -9 -4 9 11 -11 38 -22 31 -4 -3 -15 7 -25 21 -14 22
-19 23 -33 12 -9 -7 -14 -8 -10 -4 4 5 2 16 -5 25 -11 14 -10 14 6 2 18 -14
21 -12 11 13 -3 9 -11 13 -17 9 -6 -3 -7 -1 -3 6 4 6 9 24 12 39 4 25 3 26
-11 8 -8 -10 -12 -22 -10 -26 2 -4 -2 -7 -10 -7 -12 0 -12 3 0 20 11 16 12 24
3 34 -9 11 -15 10 -32 -4 -12 -10 -18 -14 -14 -9 4 5 2 16 -5 25 -10 14 -10
14 5 3 11 -9 18 -10 23 -2 3 5 1 10 -6 10 -7 0 -9 3 -6 7 4 3 16 -2 27 -12 11
-10 20 -13 20 -7 0 6 -5 12 -12 14 -9 3 -9 6 -1 11 6 4 19 -8 30 -30 20 -38
43 -55 43 -31 0 8 -7 23 -15 34 -15 18 -15 18 -8 0 5 -14 3 -17 -6 -12 -7 5
-11 17 -8 27 3 11 1 17 -3 14 -5 -3 -11 -1 -15 5 -4 6 -11 7 -18 3 -6 -4 -23
-8 -37 -10 -14 -1 -162 -47 -328 -103 -166 -55 -306 -99 -310 -98 -4 1 -20 -4
-36 -11 -37 -15 -64 2 -44 28 9 12 7 11 -9 -2 -12 -10 -24 -14 -27 -9 -3 6 1
12 9 16 8 3 15 10 15 16 0 6 -7 4 -16 -4 -17 -17 -39 -12 -28 6 4 6 2 8 -4 4
-6 -3 -13 -2 -16 2 -8 13 -56 8 -65 -7 -5 -8 -11 -9 -15 -3 -3 5 1 15 9 22 8
7 15 17 15 23 0 6 -6 3 -13 -7 -12 -16 -14 -16 -26 -2 -7 8 -14 23 -16 33 -2
10 -4 20 -5 23 -1 3 -1 10 0 15 1 6 -2 7 -6 3 -4 -4 -14 -2 -23 4 -9 7 -5 0 8
-15 14 -15 21 -27 17 -27 -4 0 -3 -7 2 -16 6 -11 5 -25 -3 -41 -7 -13 -10 -34
-7 -46 5 -20 6 -20 13 -1 6 15 7 14 6 -8 -1 -15 -3 -25 -6 -23 -2 3 -12 -2
-21 -10 -14 -13 -16 -12 -18 11 -1 14 -5 30 -8 35 -6 11 -24 2 -24 -12 0 -6 4
-8 8 -5 4 2 8 -6 8 -18 0 -12 -6 -23 -13 -23 -9 0 -10 4 -2 13 7 8 7 14 -1 19
-6 4 -9 13 -6 21 3 7 1 16 -4 19 -13 8 -18 -18 -8 -40 7 -14 4 -13 -11 5 -20
24 -25 36 -22 53 0 4 -3 7 -8 7 -17 0 -219 393 -332 644 -31 71 -61 132 -66
136 -4 4 -51 15 -103 24 -175 31 -439 86 -533 110 -98 26 -207 64 -207 73 0 3
7 3 15 -1 8 -3 15 -1 15 5 0 6 5 7 10 4 6 -3 10 -1 10 5 0 7 -8 9 -20 5 -13
-4 -20 -2 -20 6 0 7 -7 4 -15 -7 -15 -18 -15 -18 -8 0 5 14 3 17 -7 11 -8 -5
-11 -4 -7 3 6 9 26 9 47 2z m4088 -289 c2 -1 0 -6 -3 -11 -5 -8 -12 -7 -23 2
-13 11 -15 10 -9 -5 4 -10 3 -16 -2 -13 -5 3 -12 -1 -15 -10 -3 -8 -10 -13
-15 -10 -5 3 -12 -1 -15 -10 -4 -9 -9 -14 -12 -11 -4 3 -15 -4 -25 -16 -19
-22 -19 -22 -2 10 10 17 20 27 24 22 3 -5 11 2 17 16 7 14 16 24 21 21 5 -3
11 0 14 8 5 12 17 14 45 7z m-974 -39 c3 -5 -1 -9 -9 -9 -8 0 -15 4 -15 9 0 4
4 8 9 8 6 0 12 -4 15 -8z m846 -26 c0 -2 -8 -10 -17 -17 -16 -13 -17 -12 -4 4
13 16 21 21 21 13z m-4153 -73 c-4 -3 -1 -13 6 -22 11 -14 10 -14 -5 -2 -16
12 -16 31 -1 31 4 0 3 -3 0 -7z m2474 -506 c-10 -9 -11 -8 -5 6 3 10 9 15 12
12 3 -3 0 -11 -7 -18z m2398 -98 c-11 -29 -24 -59 -29 -68 -10 -19 -90 -109
-162 -183 -49 -49 -56 -62 -38 -73 6 -4 7 1 4 12 -5 15 -4 16 6 3 10 -13 11
-13 7 1 -4 11 11 34 40 63 25 26 47 46 49 44 1 -2 -11 -25 -27 -51 -19 -31
-34 -45 -42 -41 -7 4 -9 3 -4 -1 9 -10 -43 -66 -55 -59 -4 3 -8 -1 -8 -9 0
-22 -26 -41 -36 -26 -4 8 -3 9 4 5 7 -4 12 -5 12 -2 0 14 -19 14 -31 -1 -10
-12 -10 -14 -1 -9 7 4 12 2 12 -8 0 -8 -5 -18 -12 -22 -7 -5 -9 -2 -3 7 4 8
-4 1 -17 -15 -26 -31 -41 -25 -27 9 l8 20 1 -20 c1 -18 2 -17 11 4 5 13 7 26
4 29 -3 3 -5 0 -5 -7 0 -7 -5 -9 -11 -6 -6 4 -13 -2 -16 -14 -3 -11 -9 -18
-14 -15 -5 3 -6 10 -3 16 4 7 2 8 -4 4 -9 -5 -8 -13 3 -30 14 -21 13 -24 -5
-41 -11 -10 -20 -15 -20 -10 0 4 -9 -3 -20 -16 -10 -13 -19 -20 -20 -14 0 5
-7 -1 -16 -13 -8 -12 -20 -20 -25 -17 -5 4 -9 2 -9 -3 0 -11 -122 -98 -132
-94 -5 1 -8 -4 -8 -11 0 -8 -4 -7 -10 3 -8 13 -10 12 -10 -2 0 -16 -11 -23
-25 -15 -2 1 -11 -7 -20 -18 l-15 -20 6 20 c5 18 4 18 -13 -3 -15 -18 -21 -20
-32 -10 -12 11 -13 10 -8 -4 3 -10 2 -20 -3 -23 -10 -6 -6 42 4 53 4 4 13 7
19 7 7 0 13 10 13 23 1 18 1 19 -3 2 -4 -17 -8 -18 -26 -9 -12 7 -19 8 -15 4
4 -4 1 -19 -6 -34 -7 -14 -12 -34 -10 -44 2 -14 -1 -16 -10 -8 -9 8 -17 6 -30
-7 -9 -10 -13 -22 -9 -27 5 -4 2 -5 -5 0 -9 5 -10 11 -4 17 6 6 9 16 8 22 -2
6 -1 8 1 3 3 -4 9 -5 14 -1 5 3 5 12 0 23 -7 13 -6 18 4 18 8 0 11 -7 8 -16
-5 -12 -3 -13 7 -4 9 8 9 16 1 30 -7 12 -10 14 -11 4 0 -8 -3 -12 -6 -9 -3 3
-62 -21 -131 -53 -397 -188 -916 -356 -1508 -489 -331 -74 -484 -101 -825
-150 -398 -56 -351 -53 -383 -21 l-29 28 109 12 c454 52 885 129 1338 242 557
139 964 281 1360 473 404 197 696 410 854 624 30 39 55 72 57 72 2 0 -5 -23
-17 -51z m-3309 11 c-8 -5 -7 -9 4 -13 11 -5 14 -15 11 -39 -4 -29 -4 -30 4
-8 9 25 9 25 10 2 1 -13 6 -20 11 -17 7 4 7 12 0 25 -25 48 30 63 75 20 14
-13 25 -28 25 -34 0 -6 -7 -2 -15 8 -11 14 -15 16 -15 5 0 -12 -2 -12 -9 1 -6
8 -8 17 -6 20 2 4 -9 6 -24 6 -24 0 -27 -3 -22 -20 4 -18 6 -18 9 -3 2 9 8 17
13 17 6 0 5 -8 -1 -20 -9 -17 -8 -26 3 -17 2 1 12 -5 23 -13 18 -14 18 -14 4
5 -13 18 -13 19 0 9 8 -6 23 -10 33 -9 9 2 17 -1 17 -7 0 -6 -7 -8 -15 -4 -8
3 -15 1 -15 -5 0 -6 -7 -9 -15 -5 -8 3 -15 1 -15 -5 0 -6 -7 -9 -15 -5 -8 3
-15 1 -15 -5 0 -6 -7 -9 -15 -6 -8 4 -17 2 -20 -4 -12 -18 -23 1 -23 41 -1 46
-9 63 -24 54 -6 -4 -9 -3 -6 2 3 5 8 17 11 27 4 10 12 15 18 11 8 -5 8 -9 -1
-14z m985 -19 c3 -5 2 -12 -3 -15 -5 -3 -9 1 -9 9 0 17 3 19 12 6z m-3211 -73
c-123 -134 -221 -318 -245 -465 -38 -233 114 -455 403 -587 196 -89 457 -149
773 -176 66 -6 135 -13 153 -16 l33 -5 -48 -32 c-85 -58 -159 -192 -165 -300
-1 -25 -4 -27 -31 -24 -29 3 -52 27 -27 27 6 0 9 -4 6 -9 -7 -11 20 -8 31 3 4
4 1 6 -7 4 -10 -2 -14 3 -12 16 3 18 3 18 -14 2 -14 -14 -19 -15 -26 -4 -7 9
-8 7 -4 -8 5 -18 1 -20 -33 -22 -52 -3 -298 33 -435 63 -430 97 -731 300 -818
553 -19 56 -23 86 -22 187 1 112 3 126 37 219 57 156 145 291 285 438 75 78
206 198 218 198 4 0 -20 -28 -52 -62z m3346 52 c0 -5 -5 -10 -11 -10 -5 0 -7
5 -4 10 3 6 8 10 11 10 2 0 4 -4 4 -10z m-1039 -23 c-10 -9 -11 -8 -5 6 3 10
9 15 12 12 3 -3 0 -11 -7 -18z m89 -8 c0 -6 -4 -7 -10 -4 -5 3 -10 11 -10 16
0 6 5 7 10 4 6 -3 10 -11 10 -16z m1010 0 c0 -15 -18 -19 -23 -6 -3 8 1 14 9
14 8 0 14 -4 14 -8z m-1202 -29 c-10 -6 -15 -19 -13 -30 2 -11 0 -20 -6 -20
-10 0 -8 28 4 48 5 6 14 12 20 12 7 0 4 -5 -5 -10z m1141 -4 c9 -11 9 -16 -1
-22 -7 -4 -10 -4 -6 1 4 4 3 14 -3 22 -6 7 -9 13 -6 13 2 0 10 -6 16 -14z
m121 -1 c-7 -9 -15 -13 -17 -11 -7 7 7 26 19 26 6 0 6 -6 -2 -15z m-40 -15 c1
14 4 19 7 11 3 -8 13 -22 21 -32 13 -15 19 -16 31 -6 14 10 14 10 3 -4 -10
-13 -9 -19 4 -30 10 -8 20 -14 23 -13 3 0 14 -10 24 -23 10 -13 22 -21 27 -18
5 3 11 1 15 -5 4 -6 11 -7 17 -4 7 4 8 2 4 -4 -4 -7 -4 -17 0 -24 4 -6 8 -36
9 -66 2 -44 0 -51 -8 -36 -7 10 -12 22 -13 27 -1 4 -2 10 -3 15 -1 4 -5 0 -11
-8 -6 -9 -5 -20 3 -30 10 -13 10 -13 -5 -2 -14 11 -15 18 -6 38 9 19 8 27 -2
37 -10 10 -12 8 -6 -8 4 -11 4 -16 0 -12 -4 4 -14 1 -23 -5 -13 -10 -14 -10
-3 2 21 24 13 34 -10 14 -23 -19 -23 -19 -5 2 24 29 21 41 -5 18 -13 -11 -18
-13 -11 -3 10 12 10 18 1 27 -7 7 -9 12 -5 12 4 0 3 9 -3 20 -6 11 -15 18 -20
15 -6 -4 -7 2 -3 12 5 14 3 16 -7 6 -13 -12 -6 -48 8 -39 5 3 9 -1 9 -9 0 -12
-4 -12 -19 2 -13 11 -17 26 -14 45 2 15 0 30 -5 34 -9 5 -12 -4 -12 -38 0 -10
-3 -15 -8 -13 -4 3 -6 17 -3 31 3 16 1 23 -6 19 -6 -4 -7 1 -3 12 6 16 5 16
-10 4 -13 -10 -14 -17 -7 -26 8 -10 7 -15 -2 -21 -7 -4 -10 -3 -5 1 4 5 -1 18
-10 29 -10 12 -14 18 -9 14 13 -11 36 11 37 36 1 19 2 18 9 -4 l8 -25 2 25z
m-1263 -13 c1 -11 1 -18 0 -16 -2 2 -8 11 -15 20 -9 12 -9 16 1 16 7 0 14 -9
14 -20z m50 1 c-3 -8 -6 -5 -6 6 -1 11 2 17 5 13 3 -3 4 -12 1 -19z m3233 -58
c-12 -23 -16 -24 -26 -8 -4 6 -3 8 3 5 6 -4 13 0 17 8 3 8 8 15 11 15 3 0 1
-9 -5 -20z m-1976 -78 c3 -5 -1 -9 -9 -9 -8 0 -12 4 -9 9 3 4 7 8 9 8 2 0 6
-4 9 -8z m168 -34 c-6 -6 -6 -24 -1 -46 4 -21 4 -41 -1 -48 -6 -6 -6 -15 -2
-19 4 -5 1 -5 -6 -1 -9 5 -10 12 -3 20 6 8 7 27 0 54 -10 45 -5 67 13 56 6 -4
6 -10 0 -16z m75 -63 c0 -8 -4 -15 -9 -15 -10 0 -11 14 -1 23 9 10 10 9 10 -8z
m-7 -70 c14 -19 14 -19 -2 -6 -10 7 -18 18 -18 24 0 6 1 8 3 6 1 -2 9 -13 17
-24z m976 -291 c-9 -8 -14 -19 -12 -23 3 -4 -1 -8 -9 -8 -8 0 -12 4 -9 9 3 4
1 8 -4 8 -17 0 -22 -13 -9 -29 11 -14 10 -14 -6 -2 -13 11 -15 17 -6 28 7 8
18 12 25 9 7 -3 15 2 18 10 3 8 10 14 16 14 6 0 4 -7 -4 -16z m-1086 -74 c141
-20 273 -61 255 -78 -4 -4 -32 -14 -63 -22 -53 -14 -62 -14 -132 4 -66 16
-123 19 -462 23 -214 3 -386 9 -383 13 3 5 1 12 -5 15 -6 4 -9 1 -8 -6 2 -9
-11 -13 -39 -14 -34 -1 -43 3 -48 19 -4 12 -7 24 -7 27 1 3 -6 6 -13 6 -9 0
-11 -4 -6 -11 5 -6 5 -20 0 -31 l-8 -20 0 20 c-1 11 -6 27 -11 35 -7 11 -9 5
-5 -20 l5 -35 -14 35 c-8 19 -15 30 -15 23 -1 -6 -4 -20 -7 -30 -5 -15 -4 -16
6 -3 8 10 10 11 8 2 -6 -22 -23 -9 -22 16 1 12 -3 22 -8 22 -6 0 -8 -6 -5 -12
2 -7 1 -22 -4 -33 l-8 -20 0 20 c-1 17 -3 17 -11 5 -8 -13 -10 -13 -10 -1 0
11 -4 9 -15 -5 -15 -19 -15 -19 -8 1 5 16 4 18 -8 9 -24 -17 -44 -11 -43 14 1
13 -3 21 -10 19 -14 -5 -15 -28 -2 -47 10 -13 9 -13 -6 -1 -10 7 -18 10 -18 6
0 -4 -6 -2 -13 4 -8 6 -16 9 -19 6 -2 -3 -5 1 -5 9 0 8 8 13 18 11 10 -2 21 0
24 6 4 5 -21 10 -57 11 -157 5 169 13 622 16 311 2 512 -1 560 -8z m-1313 -6
c-3 -3 -12 -4 -19 -1 -8 3 -5 6 6 6 11 1 17 -2 13 -5z m56 -1 c-7 -2 -21 -2
-30 0 -10 3 -4 5 12 5 17 0 24 -2 18 -5z m364 -55 c-3 -8 -6 -5 -6 6 -1 11 2
17 5 13 3 -3 4 -12 1 -19z m-1120 -520 c113 -42 210 -169 221 -291 3 -42 2
-58 -6 -53 -6 3 -9 15 -7 25 5 24 -30 58 -41 40 -4 -7 -3 -10 4 -5 6 3 13 2
17 -4 6 -10 -3 -13 -37 -13 -10 0 -15 -3 -13 -7 3 -5 -1 -10 -7 -13 -7 -2 -10
-7 -7 -11 4 -4 14 0 23 9 12 12 16 13 17 3 0 -10 2 -10 6 0 2 6 9 12 14 12 6
0 7 -5 3 -12 -5 -7 -3 -8 6 -3 9 5 11 4 6 -4 -4 -6 -11 -9 -16 -6 -5 3 -11 1
-14 -3 -11 -18 -50 -5 -56 19 -20 74 -82 150 -153 186 -55 27 -122 34 -196 19
-34 -6 -42 -5 -36 4 5 9 4 11 -4 6 -6 -4 -9 -11 -6 -16 7 -12 -33 -24 -72 -23
-18 1 -33 -3 -33 -8 0 -6 -4 -8 -9 -5 -11 7 -53 -38 -44 -48 4 -4 0 -4 -8 -1
-10 4 -20 -2 -27 -17 -6 -13 -11 -17 -11 -10 -2 28 50 110 98 155 108 101 246
128 388 75z m1903 11 c97 -24 204 -124 234 -219 19 -56 23 -105 11 -105 -6 0
-9 5 -7 10 1 6 -5 1 -13 -9 -8 -11 -15 -15 -15 -10 0 6 -10 10 -22 9 -31 -3
-48 5 -48 20 0 7 -20 40 -45 74 -61 80 -125 113 -223 113 -83 1 -140 -22 -201
-80 -23 -22 -40 -33 -37 -25 6 14 4 14 -10 2 -15 -12 -16 -11 -11 11 4 14 4
19 1 13 -3 -7 -10 -13 -15 -13 -6 0 -7 5 -4 10 10 16 -1 11 -16 -7 -8 -10 -9
-14 -2 -10 6 4 14 3 18 -2 3 -6 -3 -8 -15 -6 -11 2 -24 -4 -30 -13 -9 -14 -10
-12 -4 8 23 85 95 168 180 207 90 41 173 48 274 22z m-2240 -165 c0 0 -8 -8
-18 -17 -16 -15 -18 -15 -18 1 0 10 8 18 18 18 10 0 18 -1 18 -2z m-56 -12 c3
-5 -1 -9 -9 -9 -8 0 -12 4 -9 9 3 4 7 8 9 8 2 0 6 -4 9 -8z"/>
<path d="M3216 6037 c3 -10 9 -15 12 -12 3 3 0 11 -7 18 -10 9 -11 8 -5 -6z"/>
<path d="M7628 5764 c-35 -18 -58 -62 -58 -110 0 -46 50 -99 102 -109 70 -13
138 43 138 115 0 90 -101 148 -182 104z"/>
<path d="M3553 6241 c0 -11 5 -18 9 -15 4 3 5 11 1 19 -7 21 -12 19 -10 -4z"/>
<path d="M4669 5418 c-6 -22 -5 -37 3 -35 6 1 13 -4 16 -12 3 -9 0 -11 -8 -6
-9 6 -9 2 0 -16 7 -13 14 -25 15 -26 1 -2 1 15 1 36 0 22 -5 39 -11 38 -5 -1
-9 4 -7 11 2 10 -6 19 -9 10z"/>
<path d="M4734 5406 c1 -8 5 -18 8 -22 4 -3 5 1 4 10 -1 8 -5 18 -8 22 -4 3
-5 -1 -4 -10z"/>
<path d="M5866 5411 c-3 -5 1 -14 8 -20 10 -9 16 -9 21 -1 4 6 1 9 -7 8 -7 -2
-12 3 -10 10 2 14 -4 16 -12 3z"/>
<path d="M4712 5353 c-2 -20 -5 -40 -8 -45 -3 -5 0 -7 7 -6 6 2 14 -3 17 -11
3 -9 0 -11 -9 -6 -8 5 -3 -4 11 -19 14 -15 24 -29 23 -32 -2 -2 -3 -10 -3 -16
1 -7 7 -2 14 11 12 21 14 21 20 6 3 -10 9 -15 13 -12 10 11 33 -14 33 -35 0
-10 4 -17 10 -13 10 6 2 36 -14 47 -8 6 -8 8 0 8 6 0 11 7 12 15 5 54 2 68
-19 91 -13 14 -22 28 -21 31 2 2 1 7 -1 10 -11 10 -1 -26 11 -39 6 -8 8 -19 4
-23 -4 -5 -2 -5 4 -2 18 10 23 -26 9 -59 l-13 -29 5 38 c4 24 2 37 -6 37 -6 0
-11 6 -11 14 0 7 -6 19 -14 25 -8 7 -13 22 -11 33 3 11 1 17 -3 14 -4 -4 -8
-11 -8 -14 -1 -4 -5 -18 -9 -30 -6 -18 -10 -21 -17 -10 -6 9 -7 5 -3 -11 5
-17 4 -21 -5 -16 -6 4 -10 22 -8 40 1 19 0 36 -3 39 -3 3 -6 -11 -7 -31z m84
-48 c9 -21 13 -43 9 -56 -7 -23 -8 -23 -22 4 -15 29 -26 37 -17 12 7 -17 -7
-20 -23 -4 -8 8 -6 21 6 49 18 43 24 43 47 -5z"/>
<path d="M4757 5301 c-13 -22 -14 -32 -6 -37 7 -4 9 -3 6 2 -3 6 -2 16 4 24 6
11 9 12 9 2 0 -7 4 -11 9 -7 5 3 12 -5 14 -17 l4 -23 2 23 c0 12 -5 25 -13 28
-8 3 -12 12 -9 20 9 24 -2 16 -20 -15z"/>
<path d="M5899 5378 c0 -2 -2 -11 -4 -22 -6 -29 -22 -41 -38 -27 -12 9 -14 7
-12 -11 3 -33 3 -31 30 -68 l25 -33 -1 59 c-1 32 2 69 5 82 2 12 3 22 0 22 -2
0 -4 -1 -5 -2z m-28 -86 c1 -11 4 -7 9 8 7 22 8 20 7 -12 0 -32 -2 -35 -12
-20 -17 26 -26 54 -15 47 6 -3 10 -14 11 -23z"/>
<path d="M5969 5333 c-13 -16 -12 -17 4 -4 9 7 17 15 17 17 0 8 -8 3 -21 -13z"/>
<path d="M5912 5284 c-2 -47 2 -65 15 -75 9 -8 14 -9 10 -3 -3 6 0 22 8 37 8
15 11 27 8 27 -4 0 4 12 18 27 13 15 17 22 8 15 -9 -6 -20 -8 -24 -4 -5 4 -5
2 -1 -5 3 -6 2 -14 -3 -17 -13 -8 -21 20 -9 32 6 6 6 12 -3 17 -7 5 -10 4 -5
-3 3 -6 2 -13 -3 -16 -5 -4 -11 2 -13 11 -3 10 -5 -10 -6 -43z m30 -21 c-1 -2
-6 -13 -11 -25 -8 -19 -10 -15 -10 22 0 39 1 42 11 25 7 -11 11 -21 10 -22z"/>
<path d="M5066 5198 c3 -5 10 -6 15 -3 13 9 11 12 -6 12 -8 0 -12 -4 -9 -9z"/>
<path d="M6010 5173 c0 -6 8 -17 18 -24 16 -13 16 -13 2 6 -8 11 -16 22 -17
24 -2 2 -3 0 -3 -6z"/>
<path d="M6323 4871 c0 -11 5 -18 9 -15 4 3 5 11 1 19 -7 21 -12 19 -10 -4z"/>
<path d="M7936 4898 c3 -5 10 -6 15 -3 13 9 11 12 -6 12 -8 0 -12 -4 -9 -9z"/>
<path d="M7911 4874 c0 -11 3 -14 6 -6 3 7 2 16 -1 19 -3 4 -6 -2 -5 -13z"/>
<path d="M7772 4800 c2 -9 -3 -14 -12 -12 -11 3 -10 -2 4 -17 23 -25 21 -24
35 -8 8 11 6 18 -10 33 -15 14 -20 15 -17 4z m22 -31 c-3 -5 -10 -7 -15 -3 -5
3 -7 10 -3 15 3 5 10 7 15 3 5 -3 7 -10 3 -15z"/>
<path d="M7738 4768 c9 -11 10 -18 2 -23 -5 -3 -10 0 -10 7 0 7 -8 1 -18 -15
-10 -15 -22 -24 -25 -20 -4 3 1 16 10 27 18 21 18 21 -5 2 -12 -11 -20 -21
-17 -24 3 -3 0 -11 -6 -19 -9 -9 -15 -10 -25 -3 -9 9 -12 7 -9 -7 3 -21 -23
-55 -37 -47 -4 3 -7 2 -6 -3 2 -4 -1 -8 -7 -8 -5 0 -9 5 -7 10 2 6 -2 4 -9 -2
-8 -8 -17 -9 -24 -3 -8 6 -11 2 -11 -15 0 -13 3 -22 7 -19 4 2 11 -1 14 -7 5
-7 19 0 39 20 18 17 36 28 40 24 4 -5 6 -3 4 2 -1 6 0 10 3 10 12 0 39 28 34
35 -3 5 -1 11 4 14 5 4 12 2 16 -4 9 -14 25 -2 19 14 -3 9 2 13 17 12 27 -1
34 28 11 46 -15 11 -15 11 -4 -4z m-68 -84 c0 -8 -19 -13 -24 -6 -3 5 1 9 9 9
8 0 15 -2 15 -3z m-95 -66 c4 -3 2 -9 -3 -12 -5 -3 -15 1 -21 8 -10 11 -9 14
3 12 9 -1 18 -5 21 -8z"/>
<path d="M7490 4619 c0 -5 -4 -8 -8 -5 -4 2 -9 -4 -9 -15 -2 -25 -22 -51 -34
-43 -10 6 -12 -9 -2 -19 3 -4 12 1 19 11 7 9 23 17 36 17 19 0 23 6 25 30 l2
30 -9 -30 c-6 -22 -8 -25 -10 -10 -1 11 -2 26 -1 33 1 6 -1 12 -4 12 -3 0 -5
-5 -5 -11z m-3 -41 c-3 -8 -6 -5 -6 6 -1 11 2 17 5 13 3 -3 4 -12 1 -19z"/>
<path d="M7391 4564 c0 -11 3 -14 6 -6 3 7 2 16 -1 19 -3 4 -6 -2 -5 -13z"/>
<path d="M4926 5172 c-4 -4 -13 -7 -19 -7 -7 0 -13 -9 -16 -20 -3 -17 -1 -18
13 -6 9 7 16 10 16 6 0 -4 7 -1 17 6 9 8 17 12 19 9 1 -3 6 0 11 5 4 6 4 7 -1
3 -5 -4 -14 -3 -21 2 -7 5 -15 6 -19 2z"/>
<path d="M3424 3596 c1 -8 5 -18 8 -22 4 -3 5 1 4 10 -1 8 -5 18 -8 22 -4 3
-5 -1 -4 -10z"/>
<path d="M3451 3584 c0 -11 3 -14 6 -6 3 7 2 16 -1 19 -3 4 -6 -2 -5 -13z"/>
<path d="M6080 5099 c0 -5 4 -8 9 -5 12 8 33 -19 23 -29 -4 -5 -2 -5 5 -1 7 4
19 -6 30 -24 10 -17 23 -28 31 -25 7 2 11 1 8 -3 -6 -10 21 -58 31 -53 4 2 14
-8 21 -23 8 -15 16 -25 19 -23 2 3 0 14 -6 25 -14 26 -14 35 0 26 6 -3 3 5 -6
20 -9 14 -21 24 -25 21 -5 -3 -20 9 -34 26 -14 17 -26 26 -26 19 0 -6 -14 5
-31 25 -31 35 -49 44 -49 24z m128 -114 c-3 -3 -9 2 -12 12 -6 14 -5 15 5 6 7
-7 10 -15 7 -18z m26 0 c3 -8 1 -15 -4 -15 -6 0 -10 7 -10 15 0 8 2 15 4 15 2
0 6 -7 10 -15z"/>
<path d="M6165 4990 c3 -5 8 -10 11 -10 2 0 4 5 4 10 0 6 -5 10 -11 10 -5 0
-7 -4 -4 -10z"/>
<path d="M5169 4438 c-10 -33 -1 -42 26 -27 6 3 22 5 37 4 17 -1 25 2 21 11
-5 15 -45 15 -55 -1 -5 -6 -8 -6 -8 3 0 10 -18 18 -21 10z"/>
<path d="M5376 4432 c-7 -12 10 -35 28 -38 9 -1 14 2 10 7 -3 5 -10 7 -15 4
-8 -6 -13 8 -10 28 1 9 -7 9 -13 -1z"/>
<path d="M5415 4420 c10 -11 20 -20 23 -20 3 0 -3 9 -13 20 -10 11 -20 20 -23
20 -3 0 3 -9 13 -20z"/>
<path d="M5106 4408 c3 -5 10 -6 15 -3 13 9 11 12 -6 12 -8 0 -12 -4 -9 -9z"/>
<path d="M6350 3606 c0 -2 8 -10 18 -17 15 -13 16 -12 3 4 -13 16 -21 21 -21
13z"/>
<path d="M6332 3596 c4 -5 3 -15 -3 -23 -9 -9 -8 -13 0 -13 6 0 11 6 11 13 0
8 4 7 10 -3 5 -8 10 -10 10 -4 0 6 -8 18 -17 25 -10 7 -15 9 -11 5z"/>
<path d="M6297 3573 c3 -7 6 -13 8 -13 2 0 5 6 8 13 3 8 -1 14 -8 14 -7 0 -11
-6 -8 -14z"/>
</g>
</svg>
